# xmcd
#
# Track frame offsets:
#	150
#	17542
#	30747
#	49785
#	62527
#	80120
#	97554
#	108032
#
# Disc length: 1785 seconds
#
# Revision: 1
# Processed by: cddbd v1.5.2PL0 Copyright (c) Steve Scherf et al.
# Submitted via: audiograbber 1.83.01
#
DISCID=5006f708
DTITLE=Michael Cassidy Virginia Johnston - Take Me Back
DYEAR=2003
DGENRE=Country
TTITLE0=Take Me Back
TTITLE1=Ease My Mind
TTITLE2=Look Within
TTITLE3=Dr. Frog
TTITLE4=Change My Way of Living
TTITLE5=All We Need to Know
TTITLE6=High-Low
TTITLE7=Roots (Take Me Back Part II)
EXTD=
EXTT0=
EXTT1=
EXTT2=
EXTT3=
EXTT4=
EXTT5=
EXTT6=
EXTT7=
PLAYORDER=
